<svg xmlns="http://www.w3.org/2000/svg" viewBox="0 0 512 512"><path d="M506.144 451.421l-154.77-154.769a19.998 19.998 0 00-14.142-5.858 19.983 19.983 0 00-13.144 4.954l-21.837-21.837c52.173-65.998 48.375-162.673-13.313-224.362h-.001c-65.983-65.983-173.346-65.985-239.332 0-66.134 66.135-66.144 173.187 0 239.332 60.814 60.813 157.546 65.972 224.351 13.301l21.851 21.851c-6.872 7.855-6.586 19.795.903 27.283l154.77 154.77c7.805 7.805 20.474 7.808 28.283 0l13.188-13.188.002-.002.002-.003 13.188-13.188c7.81-7.811 7.81-20.473.001-28.284zM260.655 260.597c-50.505 50.505-132.254 50.511-182.766 0-50.504-50.502-50.513-132.255 0-182.767 50.387-50.387 132.376-50.39 182.766 0 50.504 50.503 50.514 132.256 0 182.767z"/></svg>